<svg width="66" height="64" viewBox="0 0 66 64" fill="none" xmlns="http://www.w3.org/2000/svg">
  <mask id="mask0_9_893" style="mask-type:alpha" maskUnits="userSpaceOnUse" x="0" y="0" width="66" height="64">
    <rect x="0.58667" width="64.8533" height="64" fill="black" />
  </mask>
  <g mask="url(#mask0_9_893)">
    <path
      d="M38.4178 56C37.6522 56 37.0104 55.7444 36.4925 55.2333C35.9745 54.7222 35.7156 54.0889 35.7156 53.3333C35.7156 52.5778 35.9745 51.9444 36.4925 51.4333C37.0104 50.9222 37.6522 50.6667 38.4178 50.6667C40.5345 50.6667 42.4148 50.2556 44.0587 49.4333C45.7025 48.6111 46.5245 47.6889 46.5245 46.6667C46.5245 46.0444 46.2317 45.4667 45.6462 44.9333C45.0608 44.4 44.2501 43.9111 43.2142 43.4667L47.2 39.5333C48.6412 40.3778 49.7897 41.3778 50.6454 42.5333C51.5011 43.6889 51.9289 45.0667 51.9289 46.6667C51.9289 49.6 50.5102 51.8889 47.6729 53.5333C44.8356 55.1778 41.7505 56 38.4178 56ZM12.9494 35.6C11.6433 34.8444 10.6074 33.9667 9.8418 32.9667C9.07617 31.9667 8.69336 30.7556 8.69336 29.3333C8.69336 27.4667 9.39143 25.9 10.7876 24.6333C12.1837 23.3667 14.6833 21.9556 18.2862 20.4C21.1236 19.1111 22.9363 18.2111 23.7245 17.7C24.5126 17.1889 24.9067 16.6222 24.9067 16C24.9067 15.2889 24.4676 14.6667 23.5894 14.1333C22.7111 13.6 21.3488 13.3333 19.5022 13.3333C18.3763 13.3333 17.4305 13.4667 16.6649 13.7333C15.8993 14 15.2012 14.4444 14.5707 15.0667C14.0753 15.5556 13.4673 15.8444 12.7467 15.9333C12.0261 16.0222 11.3731 15.8222 10.7876 15.3333C10.2021 14.8889 9.86432 14.3111 9.77425 13.6C9.68417 12.8889 9.88684 12.2444 10.3822 11.6667C11.238 10.6444 12.4652 9.77778 14.064 9.06667C15.6628 8.35556 17.4756 8 19.5022 8C22.7449 8 25.3571 8.72222 27.3387 10.1667C29.3203 11.6111 30.3111 13.5556 30.3111 16C30.3111 17.7333 29.6581 19.2889 28.352 20.6667C27.046 22.0444 24.4113 23.5778 20.448 25.2667C17.8359 26.3778 16.1245 27.2 15.3138 27.7333C14.5031 28.2667 14.0978 28.8 14.0978 29.3333C14.0978 29.7333 14.3568 30.1222 14.8747 30.5C15.3926 30.8778 16.102 31.2444 17.0027 31.6L12.9494 35.6ZM51.5236 27.7333L40.0391 16.4L42.8765 13.6C43.9574 12.5333 45.2522 12 46.7609 12C48.2697 12 49.542 12.5333 50.5778 13.6L54.3609 17.3333C55.4418 18.3556 55.9822 19.6111 55.9822 21.1C55.9822 22.5889 55.4418 23.8667 54.3609 24.9333L51.5236 27.7333ZM12.7467 56C12.3864 56 12.0711 55.8667 11.8009 55.6C11.5307 55.3333 11.3956 55.0222 11.3956 54.6667V45.2C11.3956 45.1111 11.5307 44.8 11.8009 44.2667L36.256 20.1333L47.7405 31.4667L23.2854 55.6C23.1953 55.6889 22.88 55.8222 22.3396 56H12.7467Z"
      fill="black" />
  </g>
</svg>