<svg width="66" height="64" viewBox="0 0 66 64" fill="none" xmlns="http://www.w3.org/2000/svg">
<mask id="mask0_9_902" style="mask-type:alpha" maskUnits="userSpaceOnUse" x="0" y="0" width="66" height="64">
<rect x="0.306641" width="64.8533" height="64" fill="#D9D9D9"/>
</mask>
<g mask="url(#mask0_9_902)">
<path d="M8.41336 50.6667C6.92713 50.6667 5.65484 50.1445 4.59647 49.1C3.5381 48.0556 3.00891 46.8 3.00891 45.3333V18.6667C3.00891 17.2 3.5381 15.9445 4.59647 14.9C5.65484 13.8556 6.92713 13.3333 8.41336 13.3333H35.4356C36.9218 13.3333 38.1941 13.8556 39.2525 14.9C40.3108 15.9445 40.84 17.2 40.84 18.6667V45.3333C40.84 46.8 40.3108 48.0556 39.2525 49.1C38.1941 50.1445 36.9218 50.6667 35.4356 50.6667H8.41336ZM48.9467 29.3333C48.1811 29.3333 47.5393 29.0778 47.0214 28.5667C46.5034 28.0556 46.2445 27.4222 46.2445 26.6667V16C46.2445 15.2445 46.5034 14.6111 47.0214 14.1C47.5393 13.5889 48.1811 13.3333 48.9467 13.3333H59.7556C60.5212 13.3333 61.163 13.5889 61.6809 14.1C62.1988 14.6111 62.4578 15.2445 62.4578 16V26.6667C62.4578 27.4222 62.1988 28.0556 61.6809 28.5667C61.163 29.0778 60.5212 29.3333 59.7556 29.3333H48.9467ZM13.8178 40H30.0311C30.5716 40 30.9769 39.7556 31.2471 39.2667C31.5174 38.7778 31.4723 38.3111 31.112 37.8667L26.7209 32.0667C26.4507 31.7111 26.0904 31.5333 25.64 31.5333C25.1897 31.5333 24.8294 31.7111 24.5591 32.0667L20.5734 37.3333L17.9387 33.8667C17.6685 33.5111 17.3082 33.3333 16.8578 33.3333C16.4074 33.3333 16.0471 33.5111 15.7769 33.8667L12.7369 37.8667C12.3766 38.3111 12.3316 38.7778 12.6018 39.2667C12.872 39.7556 13.2774 40 13.8178 40ZM48.9467 50.6667C48.1811 50.6667 47.5393 50.4111 47.0214 49.9C46.5034 49.3889 46.2445 48.7556 46.2445 48V37.3333C46.2445 36.5778 46.5034 35.9445 47.0214 35.4333C47.5393 34.9222 48.1811 34.6667 48.9467 34.6667H59.7556C60.5212 34.6667 61.163 34.9222 61.6809 35.4333C62.1988 35.9445 62.4578 36.5778 62.4578 37.3333V48C62.4578 48.7556 62.1988 49.3889 61.6809 49.9C61.163 50.4111 60.5212 50.6667 59.7556 50.6667H48.9467Z" fill="#737F7D"/>
</g>
</svg>
