<svg width="66" height="64" viewBox="0 0 66 64" fill="none" xmlns="http://www.w3.org/2000/svg">
<mask id="mask0_9_899" style="mask-type:alpha" maskUnits="userSpaceOnUse" x="0" y="0" width="66" height="64">
<rect x="0.666687" width="64.8533" height="64" fill="#D9D9D9"/>
</mask>
<g mask="url(#mask0_9_899)">
<path d="M38.1599 58.6667H28.0266C27.351 58.6667 26.7656 58.4445 26.2702 58C25.7747 57.5556 25.482 57 25.3919 56.3333L24.5813 50.1333C23.9958 49.9111 23.4441 49.6445 22.9262 49.3333C22.4082 49.0222 21.9016 48.6889 21.4062 48.3333L15.5288 50.7333C14.8983 50.9556 14.2678 50.9778 13.6373 50.8C13.0067 50.6222 12.5113 50.2445 12.151 49.6667L7.15193 41.0667C6.79163 40.4889 6.67904 39.8667 6.81415 39.2C6.94926 38.5333 7.28704 38 7.82749 37.6L12.8942 33.8C12.8491 33.4889 12.8266 33.1889 12.8266 32.9V31.1C12.8266 30.8111 12.8491 30.5111 12.8942 30.2L7.82749 26.4C7.28704 26 6.94926 25.4667 6.81415 24.8C6.67904 24.1333 6.79163 23.5111 7.15193 22.9333L12.151 14.3333C12.4663 13.7111 12.9504 13.3222 13.6035 13.1667C14.2565 13.0111 14.8983 13.0445 15.5288 13.2667L21.4062 15.6667C21.9016 15.3111 22.4195 14.9778 22.9599 14.6667C23.5004 14.3556 24.0408 14.0889 24.5813 13.8667L25.3919 7.66668C25.482 7.00001 25.7747 6.44445 26.2702 6.00001C26.7656 5.55557 27.351 5.33334 28.0266 5.33334H38.1599C38.8355 5.33334 39.421 5.55557 39.9164 6.00001C40.4118 6.44445 40.7045 7.00001 40.7946 7.66668L41.6053 13.8667C42.1907 14.0889 42.7424 14.3556 43.2604 14.6667C43.7783 14.9778 44.285 15.3111 44.7804 15.6667L50.6577 13.2667C51.2882 13.0445 51.9187 13.0222 52.5493 13.2C53.1798 13.3778 53.6752 13.7556 54.0355 14.3333L59.0346 22.9333C59.3949 23.5111 59.5075 24.1333 59.3724 24.8C59.2373 25.4667 58.8995 26 58.359 26.4L53.2924 30.2C53.3374 30.5111 53.3599 30.8111 53.3599 31.1V32.9C53.3599 33.1889 53.3149 33.4889 53.2248 33.8L58.2915 37.6C58.8319 38 59.1697 38.5333 59.3048 39.2C59.4399 39.8667 59.3273 40.4889 58.967 41.0667L53.9679 49.6C53.6076 50.1778 53.101 50.5667 52.4479 50.7667C51.7949 50.9667 51.1531 50.9556 50.5226 50.7333L44.7804 48.3333C44.285 48.6889 43.767 49.0222 43.2266 49.3333C42.6862 49.6445 42.1457 49.9111 41.6053 50.1333L40.7946 56.3333C40.7045 57 40.4118 57.5556 39.9164 58C39.421 58.4445 38.8355 58.6667 38.1599 58.6667ZM33.2284 41.3333C35.8405 41.3333 38.0699 40.4222 39.9164 38.6C41.7629 36.7778 42.6862 34.5778 42.6862 32C42.6862 29.4222 41.7629 27.2222 39.9164 25.4C38.0699 23.5778 35.8405 22.6667 33.2284 22.6667C30.5712 22.6667 28.3306 23.5778 26.5066 25.4C24.6826 27.2222 23.7706 29.4222 23.7706 32C23.7706 34.5778 24.6826 36.7778 26.5066 38.6C28.3306 40.4222 30.5712 41.3333 33.2284 41.3333Z" fill="#737F7D"/>
</g>
</svg>
